<svg width="650" height="650" version="1.1" viewBox="0 0 650 650" xmlns="http://www.w3.org/2000/svg">
 <rect x="-9.3297" y="-5.5732" width="671.82" height="670.47" fill="#323232" stroke-width="0" style="paint-order:markers fill stroke"/>
 <g transform="matrix(.87019 0 0 .87019 106.96 106.57)" fill="#c8c8c8">
  <path d="m511.12 77.251c-0.806-5.625-4.717-10.313-10.107-12.114-5.361-1.816-11.323-0.396-15.352 3.618l-21.211 21.226c-11.338 11.338-31.099 11.338-42.437 0-11.732-11.732-11.726-30.698 0-42.422l21.211-21.211c4.014-4.014 5.42-9.961 3.618-15.352s-6.489-9.302-12.114-10.107c-27.993-3.955-56.323 5.449-76.348 25.444-22.646 22.661-31.582 55.972-23.306 86.953l-221.78 221.77-0.015-0.015c-30.864-8.188-64.365 0.747-86.938 23.32-19.893 19.893-29.414 48.443-25.459 76.362 0.806 5.625 4.717 10.313 10.107 12.114 5.347 1.802 11.323 0.396 15.352-3.618l21.211-21.226c11.338-11.338 31.099-11.338 42.437 0 11.732 11.73 11.726 30.696 0 42.422l-21.211 21.211c-4.014 4.014-5.42 9.961-3.618 15.352s6.489 9.302 12.114 10.107c27.92 3.973 56.014-5.129 76.348-25.444 22.646-22.661 31.582-55.972 23.306-86.953l221.78-221.77 0.015 0.015c31.025 8.218 64.365-0.747 86.938-23.32 19.893-19.893 29.414-48.442 25.459-76.362z"/>
  <path d="m422 332c-7.104 0-14.414 1.069-22.998 3.34l-58.138-58.131-63.653 63.646 58.129 58.133c-2.271 8.598-3.34 15.908-3.34 23.012 0 49.629 40.371 90 90 90s90-40.371 90-90-40.371-90-90-90zm49.219 86.997-8.921 33.281c-1.392 5.171-5.435 9.214-10.605 10.605l-33.281 8.921c-4.889 1.348-10.538 0.068-14.487-3.882l-24.36-24.36c-3.794-3.794-5.273-9.316-3.882-14.487l8.921-33.281c1.392-5.171 5.435-9.214 10.605-10.605l33.281-8.921c5.142-1.436 10.679 0.088 14.487 3.882l24.36 24.36c3.794 3.794 5.273 9.316 3.882 14.487z"/>
  <path d="m176.9 112.44c8.276-30.981-0.66-64.306-23.306-86.953-33.999-33.984-93.311-33.984-127.28 0-35.083 35.098-35.083 92.197 0 127.28 22.544 22.544 55.928 31.611 86.953 23.306l57.88 58.708 63.642-63.635zm-39.229-27.817-8.921 33.281c-1.392 5.171-5.435 9.214-10.605 10.605l-33.281 8.921c-4.889 1.348-10.538 0.068-14.487-3.882l-24.36-24.36c-3.794-3.794-5.273-9.316-3.882-14.487l8.921-33.281c1.392-5.171 5.435-9.214 10.605-10.605l33.281-8.921c5.171-1.406 10.693 0.088 14.487 3.882l24.36 24.36c3.794 3.794 5.273 9.316 3.882 14.487z"/>
 </g>
</svg>
