<?xml version="1.0" encoding="UTF-8" standalone="no"?>
<svg
   xmlns:dc="http://purl.org/dc/elements/1.1/"
   xmlns:cc="http://creativecommons.org/ns#"
   xmlns:rdf="http://www.w3.org/1999/02/22-rdf-syntax-ns#"
   xmlns:svg="http://www.w3.org/2000/svg"
   xmlns="http://www.w3.org/2000/svg"
   xmlns:sodipodi="http://sodipodi.sourceforge.net/DTD/sodipodi-0.dtd"
   xmlns:inkscape="http://www.inkscape.org/namespaces/inkscape"
   width="650"
   height="650"
   version="1.1"
   viewBox="0 0 650 650"
   id="svg10"
   sodipodi:docname="tools.svg"
   inkscape:version="1.0.1 (1.0.1+r74)">
  <metadata
     id="metadata16">
    <rdf:RDF>
      <cc:Work
         rdf:about="">
        <dc:format>image/svg+xml</dc:format>
        <dc:type
           rdf:resource="http://purl.org/dc/dcmitype/StillImage" />
      </cc:Work>
    </rdf:RDF>
  </metadata>
  <defs
     id="defs14" />
  <sodipodi:namedview
     pagecolor="#ffffff"
     bordercolor="#666666"
     borderopacity="1"
     objecttolerance="10"
     gridtolerance="10"
     guidetolerance="10"
     inkscape:pageopacity="0"
     inkscape:pageshadow="2"
     inkscape:window-width="1920"
     inkscape:window-height="1043"
     id="namedview12"
     showgrid="false"
     inkscape:zoom="1.1307692"
     inkscape:cx="325"
     inkscape:cy="325"
     inkscape:window-x="1600"
     inkscape:window-y="0"
     inkscape:window-maximized="1"
     inkscape:current-layer="svg10"
     inkscape:document-rotation="0" />
  <rect
     style="fill:#323232;fill-opacity:1;stroke:#e7b4b4;stroke-width:0;stroke-linecap:square;stroke-linejoin:round;stroke-miterlimit:4;stroke-dasharray:none;stroke-dashoffset:300.69;paint-order:markers fill stroke;stroke-opacity:1"
     id="rect841"
     width="671.8244"
     height="670.46515"
     x="-9.3296547"
     y="-5.5731974" />
  <g
     transform="matrix(0.87018538,0,0,0.87018538,106.95684,106.56853)"
     id="g8"
     style="fill:#c8c8c8;fill-opacity:1">
    <path
       d="m 511.12,77.251 c -0.806,-5.625 -4.717,-10.313 -10.107,-12.114 -5.361,-1.816 -11.323,-0.396 -15.352,3.618 L 464.45,89.981 c -11.338,11.338 -31.099,11.338 -42.437,0 -11.732,-11.732 -11.726,-30.698 0,-42.422 l 21.211,-21.211 c 4.014,-4.014 5.42,-9.961 3.618,-15.352 C 445.04,5.605 440.353,1.694 434.728,0.889 406.735,-3.066 378.405,6.338 358.38,26.333 335.734,48.994 326.798,82.305 335.074,113.286 l -221.78,221.77 -0.015,-0.015 c -30.864,-8.188 -64.365,0.747 -86.938,23.32 -19.893,19.893 -29.414,48.443 -25.459,76.362 0.806,5.625 4.717,10.313 10.107,12.114 5.347,1.802 11.323,0.396 15.352,-3.618 l 21.211,-21.226 c 11.338,-11.338 31.099,-11.338 42.437,0 11.732,11.73 11.726,30.696 0,42.422 l -21.211,21.211 c -4.014,4.014 -5.42,9.961 -3.618,15.352 1.802,5.391 6.489,9.302 12.114,10.107 27.92,3.973 56.014,-5.129 76.348,-25.444 22.646,-22.661 31.582,-55.972 23.306,-86.953 l 221.78,-221.77 0.015,0.015 c 31.025,8.218 64.365,-0.747 86.938,-23.32 19.893,-19.893 29.414,-48.442 25.459,-76.362 z"
       id="path2"
       style="fill:#c8c8c8;fill-opacity:1" />
    <path
       d="m 422,332 c -7.104,0 -14.414,1.069 -22.998,3.34 l -58.138,-58.131 -63.653,63.646 58.129,58.133 C 333.069,407.586 332,414.896 332,422 c 0,49.629 40.371,90 90,90 49.629,0 90,-40.371 90,-90 0,-49.629 -40.371,-90 -90,-90 z m 49.219,86.997 -8.921,33.281 c -1.392,5.171 -5.435,9.214 -10.605,10.605 l -33.281,8.921 c -4.889,1.348 -10.538,0.068 -14.487,-3.882 l -24.36,-24.36 c -3.794,-3.794 -5.273,-9.316 -3.882,-14.487 l 8.921,-33.281 c 1.392,-5.171 5.435,-9.214 10.605,-10.605 l 33.281,-8.921 c 5.142,-1.436 10.679,0.088 14.487,3.882 l 24.36,24.36 c 3.794,3.794 5.273,9.316 3.882,14.487 z"
       id="path4"
       style="fill:#c8c8c8;fill-opacity:1" />
    <path
       d="m 176.9,112.44 c 8.276,-30.981 -0.66,-64.306 -23.306,-86.953 -33.999,-33.984 -93.311,-33.984 -127.28,0 -35.083,35.098 -35.083,92.197 0,127.28 22.544,22.544 55.928,31.611 86.953,23.306 l 57.88,58.708 63.642,-63.635 z m -39.229,-27.817 -8.921,33.281 c -1.392,5.171 -5.435,9.214 -10.605,10.605 l -33.281,8.921 c -4.889,1.348 -10.538,0.068 -14.487,-3.882 l -24.36,-24.36 C 42.223,105.394 40.744,99.872 42.135,94.701 L 51.056,61.42 c 1.392,-5.171 5.435,-9.214 10.605,-10.605 l 33.281,-8.921 c 5.171,-1.406 10.693,0.088 14.487,3.882 l 24.36,24.36 c 3.794,3.794 5.273,9.316 3.882,14.487 z"
       id="path6"
       style="fill:#c8c8c8;fill-opacity:1" />
  </g>
</svg>
