<svg viewBox="0 0 650 650">
 <g fill="none">
  <path d="m577.03 296.92a275.9 275.9 0 0 1-275.9 275.9 275.9 275.9 0 0 1-275.9-275.9 275.9 275.9 0 0 1 275.9-275.9 275.9 275.9 0 0 1 275.9 275.9z" stroke-width="0"/>
  <path d="m326.11 16.721a309.3 309.3 0 0 0-309.3 309.3 309.3 309.3 0 0 0 309.3 309.3 309.3 309.3 0 0 0 309.3-309.3 309.3 309.3 0 0 0-309.3-309.3z" stroke="#000" stroke-linejoin="round" stroke-width="35"/>
  <path d="m325.17 127.45c-51.633-6e-5 -93.49 41.857-93.49 93.49-6e-5 51.633 41.857 93.49 93.49 93.49 51.633 6e-5 93.49-41.857 93.49-93.49 6e-5 -51.633-41.857-93.49-93.49-93.49zm-1.502 243.62c-54.172-0.0861-108.15 19.936-152.57 60.326-217.86 270.47 522.8 267.01 306.3 0-45.194-40.046-99.559-60.24-153.73-60.326z" stroke="#000" stroke-linejoin="round" stroke-width="35"/>
 </g>
</svg>
